<svg width="111" height="51" fill="none" xmlns="http://www.w3.org/2000/svg"><g clip-path="url(#a)"><path d="M41.816 32.206a.41.41 0 0 1-.307-.139l-7.18-6.95a.422.422 0 0 1 .03-.592.41.41 0 0 1 .585.031l7.181 6.95a.422.422 0 0 1-.309.702v-.002z" fill="#B4BD00"/><path d="M32.521 39.141v-6.743c0-.41.31-.726.715-.726h4.708a.646.646 0 0 1 0 1.29h-4.001v2.13h3.48a.65.65 0 0 1 .637.656.63.63 0 0 1-.637.632h-3.48v2.2H38a.646.646 0 0 1 0 1.29h-4.765a.71.71 0 0 1-.715-.725v-.004zM39.699 38.087v-.023c0-1.334 1.027-1.991 2.52-1.991.684 0 1.17.105 1.642.256v-.153c0-.877-.531-1.346-1.514-1.346-.53 0-.972.093-1.352.246a.75.75 0 0 1-.22.037.585.585 0 0 1-.59-.585c0-.257.173-.48.38-.563a5.173 5.173 0 0 1 1.966-.362c.913 0 1.597.245 2.024.691.45.445.66 1.1.66 1.909v3.043a.67.67 0 0 1-.682.679c-.405 0-.684-.281-.684-.598v-.233c-.417.504-1.052.901-1.99.901-1.145 0-2.162-.668-2.162-1.908h.002zm4.186-.445v-.422a3.841 3.841 0 0 0-1.388-.246c-.903 0-1.436.387-1.436 1.03v.025c0 .597.52.936 1.193.936.925 0 1.631-.54 1.631-1.323zM46.888 34.33c0-.4.3-.714.693-.714.392 0 .706.314.706.713v.633c.325-.772.925-1.359 1.536-1.359.441 0 .695.292.695.702 0 .374-.243.62-.556.678-.994.176-1.677.947-1.677 2.411v1.826a.702.702 0 0 1-.706.701.684.684 0 0 1-.693-.7v-4.895l.002.003zM51.948 38.157v-3.255h-.231a.6.6 0 0 1-.6-.608c0-.34.265-.61.6-.61h.23v-1.052c0-.387.313-.703.707-.703.394 0 .693.316.693.703v1.052h1.099c.335 0 .612.27.612.61a.61.61 0 0 1-.612.608h-1.1v3.033c0 .55.279.772.753.772.16 0 .302-.037.348-.037.311 0 .59.257.59.585 0 .259-.173.47-.37.55-.301.106-.591.164-.96.164-1.028 0-1.757-.455-1.757-1.816l-.002.004zM56.41 31.965c0-.386.3-.703.693-.703.392 0 .706.317.706.703v2.67c.393-.575.959-1.077 1.908-1.077 1.377 0 2.173.936 2.173 2.363v3.303c0 .399-.3.7-.692.7a.696.696 0 0 1-.707-.7v-2.868c0-.962-.472-1.512-1.307-1.512s-1.375.575-1.375 1.534v2.846a.694.694 0 0 1-.706.7.684.684 0 0 1-.693-.7v-7.258zM67.287 32.328c0-.4.31-.714.715-.714.404 0 .706.315.706.713v6.886a.712.712 0 1 1-1.422 0v-6.886zM70.706 34.33c0-.4.3-.714.693-.714.392 0 .706.314.706.713v.306c.393-.575.959-1.077 1.908-1.077 1.376 0 2.173.936 2.173 2.363v3.303c0 .399-.3.7-.693.7a.696.696 0 0 1-.706-.7v-2.868c0-.962-.472-1.512-1.307-1.512s-1.375.575-1.375 1.534v2.846a.694.694 0 0 1-.706.7.684.684 0 0 1-.693-.7v-4.895zM77.64 39.246c-.15-.082-.265-.256-.265-.492 0-.314.243-.574.568-.574a.62.62 0 0 1 .3.082c.59.4 1.203.6 1.758.6.6 0 .948-.257.948-.668v-.025c0-.478-.647-.643-1.364-.866-.903-.257-1.91-.633-1.91-1.816v-.023c0-1.17.96-1.885 2.175-1.885.648 0 1.33.186 1.92.502a.605.605 0 0 1 .335.54.566.566 0 0 1-.578.575.563.563 0 0 1-.278-.07c-.496-.257-1.005-.422-1.435-.422-.543 0-.856.256-.856.608v.022c0 .457.66.645 1.377.88.888.28 1.897.69 1.897 1.802v.023c0 1.299-.995 1.944-2.267 1.944-.774 0-1.62-.246-2.324-.738v.001zM83.64 32.023c0-.423.348-.692.798-.692.45 0 .798.269.798.692v.069c0 .422-.347.703-.798.703-.451 0-.799-.281-.799-.703v-.069zm.105 2.306c0-.399.3-.713.693-.713.392 0 .706.314.706.713v4.895a.694.694 0 0 1-.706.7.684.684 0 0 1-.693-.7v-4.895zM87.326 41.215a.58.58 0 0 1-.394-.563c0-.316.266-.585.59-.585.106 0 .186.023.255.06a3.693 3.693 0 0 0 1.873.492c1.25 0 1.932-.655 1.932-1.896v-.48c-.508.668-1.145 1.137-2.15 1.137-1.436 0-2.776-1.077-2.776-2.893v-.023c0-1.825 1.352-2.903 2.775-2.903 1.028 0 1.665.48 2.139 1.055v-.294c0-.387.31-.701.693-.701.381 0 .706.314.706.713v4.274c0 1.04-.267 1.814-.776 2.33-.555.561-1.411.832-2.508.832-.858 0-1.62-.188-2.359-.55v-.005zm4.267-4.742v-.023c0-1.007-.822-1.699-1.794-1.699-.972 0-1.734.678-1.734 1.7v.022c0 1.007.775 1.698 1.734 1.698.96 0 1.793-.69 1.793-1.698zM94.724 31.965c0-.386.3-.703.692-.703.393 0 .707.317.707.703v2.67c.392-.575.958-1.077 1.907-1.077 1.377 0 2.174.936 2.174 2.363v3.303c0 .399-.3.7-.693.7a.696.696 0 0 1-.706-.7v-2.868c0-.962-.473-1.512-1.307-1.512-.835 0-1.375.575-1.375 1.534v2.846a.694.694 0 0 1-.707.7.684.684 0 0 1-.692-.7v-7.258zM102.179 38.157v-3.255h-.231a.6.6 0 0 1-.601-.608c0-.34.266-.61.601-.61h.231v-1.052c0-.387.312-.703.706-.703.394 0 .693.316.693.703v1.052h1.099a.61.61 0 1 1 0 1.218h-1.099v3.033c0 .55.278.772.751.772.162 0 .302-.037.349-.037.311 0 .59.257.59.585 0 .259-.173.47-.371.55-.3.106-.59.164-.958.164-1.029 0-1.758-.455-1.758-1.816l-.002.004zM106.409 39.246a.543.543 0 0 1-.266-.492c0-.314.243-.574.568-.574a.62.62 0 0 1 .3.082c.59.4 1.203.6 1.759.6.6 0 .947-.257.947-.668v-.025c0-.478-.647-.643-1.364-.866-.903-.257-1.909-.633-1.909-1.816v-.023c0-1.17.959-1.885 2.175-1.885.647 0 1.329.186 1.919.502a.606.606 0 0 1 .335.54.566.566 0 0 1-.578.575.56.56 0 0 1-.277-.07c-.497-.257-1.005-.422-1.436-.422-.543 0-.856.256-.856.608v.022c0 .457.66.645 1.377.88.888.28 1.897.69 1.897 1.802v.023c0 1.299-.995 1.944-2.267 1.944a4.135 4.135 0 0 1-2.324-.738v.001z" fill="#FFF"/><path d="M75.88 42.464a.72.72 0 0 0-.963-.342.735.735 0 0 0-.338.975c.567 1.193.414 2.73-.405 4.109-.826 1.388-2.121 2.283-3.32 2.332L9.794 46.67c2.235-1.714 8.218-6.845 24.921-21.775l30.78 4.795c.031.005.054-.018.084-.02a.69.69 0 0 0 .434-.137.74.74 0 0 0 .135-1.026L57.113 16.52c-3.872-4.687-8.106-4.507-11.49-4.369l-26.896 1.294c-4.31.4-5.108 1.652-8.168 7.495L.62 40.104c-.055.113-1.352 2.794-.03 5.075 1 1.726 3.167 2.677 6.44 2.826L70.847 51c1.742-.069 3.49-1.236 4.563-3.04 1.073-1.803 1.246-3.858.47-5.496zM18.828 14.903l26.466-1.276.388-.016c3.393-.146 6.91-.288 10.305 3.822L64.46 28.68l-29.812-4.643a.43.43 0 0 0-.337.1 2860.953 2860.953 0 0 1-9.385 8.348l-13.506-10.06.417-.803c3.01-5.746 3.46-6.39 6.991-6.716l-.001-.002zM1.843 44.445c-.93-1.589.061-3.666.065-3.673l9.123-17.595 13.257 9.873C16.842 39.637 9.744 45.832 8.575 46.614l-1.476-.069c-2.748-.127-4.516-.831-5.256-2.098v-.002z" fill="#FFF"/><path d="M34.557 0c-4.407 0-7.98 3.518-7.98 7.857 0 .754.108 1.484.31 2.173 1.284 4.822 7.071 13.015 7.613 13.774v.058l.02-.028.021.028v-.056c.619-.856 8.084-11.267 7.983-15.497.009-.15.014-.3.014-.452 0-4.339-3.572-7.857-7.98-7.857zm.057 12.537c-2.752 0-4.983-2.186-4.983-4.882 0-2.696 2.23-4.882 4.983-4.882 2.753 0 4.984 2.186 4.984 4.882 0 2.696-2.23 4.882-4.984 4.882z" fill="url(#b)"/></g><defs><linearGradient id="b" x1="26.578" y1="11.931" x2="42.538" y2="11.931" gradientUnits="userSpaceOnUse"><stop offset=".2" stop-color="#73A341"/><stop offset=".27" stop-color="#82AC3D"/><stop offset=".48" stop-color="#A9C535"/><stop offset=".65" stop-color="#C2D52F"/><stop offset=".75" stop-color="#CBDB2E"/></linearGradient><clipPath id="a"><path fill="#FFF" d="M0 0h111v51H0z"/></clipPath></defs></svg>