<svg width="142" height="30" viewBox="0 0 142 30" fill="none" xmlns="http://www.w3.org/2000/svg">
<g clip-path="url(#clip0_16_3561)">
<path d="M134.374 22.9383C135.551 21.0351 136.678 19.2321 137.78 17.4291C138.205 16.7029 138.806 16.4275 139.608 16.5026C140.434 16.5777 141.06 17.1787 141.06 17.98C141.085 21.4358 141.085 24.8916 141.06 28.3473C141.06 29.2238 140.384 29.8498 139.558 29.8749C138.706 29.8749 138.105 29.2989 138.105 28.3473C138.08 26.3189 138.105 24.3156 137.905 22.2121C137.229 23.2388 136.553 24.2906 135.876 25.3173C134.8 26.97 133.898 26.97 132.821 25.3423C132.145 24.3156 131.469 23.2889 130.618 22.2872C130.618 23.6144 130.618 24.9667 130.618 26.2939C130.618 27.0201 130.643 27.7463 130.618 28.4725C130.593 29.3239 130.067 29.8498 129.265 29.8749C128.439 29.8999 127.813 29.349 127.763 28.4976C127.713 27.6712 127.763 26.8448 127.763 26.0184C127.763 23.4391 127.788 20.8849 127.763 18.3056C127.763 17.4542 128.013 16.778 128.89 16.5527C129.766 16.3273 130.493 16.5777 131.018 17.4041C132.07 19.2321 133.197 21.0101 134.374 22.9383Z" fill="#FCFCFC"/>
<path d="M118.723 16.3522C114.741 16.3272 111.661 19.3071 111.636 23.1636C111.611 27.0701 114.616 30 118.623 30C122.629 30 125.684 27.0951 125.735 23.2136C125.785 19.3823 122.705 16.3522 118.723 16.3522ZM118.698 27.3205C116.419 27.3205 114.691 25.5175 114.691 23.1385C114.691 20.7846 116.394 19.0567 118.673 19.0567C120.902 19.0818 122.629 20.8597 122.654 23.1636C122.679 25.4924 120.952 27.3205 118.698 27.3205Z" fill="#FCFCFC"/>
<path d="M105.451 30.0001C101.494 30.0001 98.5643 27.0702 98.6144 23.1386C98.6394 19.2071 101.695 16.2522 105.676 16.3523C107.104 16.3774 108.456 16.6779 109.658 17.4792C110.509 18.0552 110.76 18.8565 110.309 19.5827C109.833 20.334 108.982 20.4592 108.055 19.8832C105.326 18.2305 102.471 19.2071 101.77 22.0618C101.344 23.8148 102.02 25.6929 103.372 26.6445C104.75 27.5961 106.528 27.5209 108.105 26.4191C109.057 25.768 109.858 25.7931 110.359 26.5193C110.835 27.2204 110.609 27.9466 109.733 28.6228C108.456 29.6244 107.028 30.0251 105.451 30.0001Z" fill="#FCFCFC"/>
<path d="M96.4357 23.2138C96.4357 24.8665 96.4357 26.4942 96.4357 28.147C96.4357 29.2739 95.9099 29.8749 94.9833 29.8749C94.0818 29.8749 93.5059 29.2488 93.5059 28.172C93.5059 24.8415 93.5059 21.536 93.5059 18.2054C93.5059 17.1286 94.0568 16.4775 94.9583 16.4775C95.8598 16.4775 96.4107 17.1036 96.4357 18.1804C96.4357 19.8582 96.4357 21.536 96.4357 23.2138Z" fill="#FCFCFC"/>
<path d="M91.5025 27.8715C89.975 24.3907 88.4224 20.9099 86.8698 17.4541C86.5192 16.7029 85.9182 16.3523 85.1169 16.3523C84.3155 16.3773 83.6895 16.7029 83.3639 17.4541C81.7863 20.9349 80.2337 24.4408 78.6811 27.9466C78.3806 28.6728 78.5559 29.349 79.2821 29.7496C79.9583 30.1252 80.8347 29.7997 81.2103 29.0485C81.4858 28.5476 81.7112 28.0217 81.8865 27.4708C82.0618 26.9199 82.3873 26.7697 82.9382 26.7947C84.3907 26.8448 85.818 26.8448 87.2454 26.7947C87.8214 26.7697 88.0968 26.97 88.2972 27.4959C88.4975 28.0969 88.773 28.6728 89.0735 29.2237C89.424 29.8498 90.0501 30 90.7262 29.7997C91.3272 29.6244 91.6277 29.1486 91.6528 28.4224C91.6027 28.2972 91.5776 28.0718 91.5025 27.8715ZM83.8898 24.2655H83.2387L83.4891 23.6645C83.99 22.5126 84.4658 21.3356 85.0417 19.9583C85.6928 21.4858 86.2437 22.8131 86.8698 24.2655C85.793 24.2655 84.8414 24.2655 83.8898 24.2655Z" fill="#FCFCFC"/>
<path d="M65.6094 23.2139C65.6094 21.5361 65.6094 19.8583 65.6094 18.1805C65.6094 17.1287 66.1352 16.5277 67.0117 16.4776C67.9132 16.4276 68.5142 17.0536 68.5392 18.1554C68.5643 19.1321 68.5643 20.1337 68.5392 21.1104C68.5142 21.6112 68.6394 21.8616 69.2154 21.8366C70.5426 21.7865 71.8948 21.7865 73.222 21.8366C73.798 21.8616 73.8982 21.6112 73.8982 21.1104C73.8731 20.1337 73.8731 19.1321 73.8982 18.1554C73.9232 17.1037 74.4491 16.5027 75.3256 16.5027C76.2521 16.4776 76.8281 17.1287 76.8281 18.2055C76.8281 21.5361 76.8281 24.8666 76.8281 28.1972C76.8281 29.299 76.2771 29.9 75.3506 29.9C74.4241 29.9 73.8982 29.274 73.8982 28.1721C73.8982 27.1955 73.8731 26.1938 73.8982 25.2172C73.9232 24.7164 73.798 24.466 73.222 24.491C71.8948 24.5411 70.5426 24.5411 69.2154 24.491C68.6394 24.466 68.5142 24.7164 68.5392 25.2172C68.5643 26.1688 68.5643 27.1204 68.5392 28.072C68.5142 29.274 68.0134 29.9 67.0618 29.9C66.1102 29.9 65.5843 29.274 65.5843 28.097C65.5843 26.4443 65.6094 24.8416 65.6094 23.2139Z" fill="#FCFCFC"/>
<path d="M56.97 24.1904C56.97 22.8382 56.9199 21.4609 56.995 20.1086C57.02 19.4074 56.7696 19.2321 56.1436 19.2822C55.5426 19.3323 54.9416 19.3073 54.3406 19.2822C53.414 19.2321 52.8381 18.6562 52.8631 17.8799C52.8882 17.1286 53.4391 16.6028 54.3406 16.6028C57.1202 16.5777 59.8748 16.5777 62.6544 16.6028C63.5309 16.6028 64.0818 17.1537 64.1069 17.9049C64.1069 18.6562 63.5559 19.2321 62.6795 19.2572C62.0034 19.2822 61.3523 19.3073 60.6761 19.2572C60.0751 19.2071 59.9249 19.4575 59.9249 20.0084C59.9499 22.763 59.9249 25.5176 59.9499 28.2722C59.9499 29.0235 59.6494 29.5744 58.8982 29.7747C58.222 29.95 57.6461 29.7497 57.2454 29.1487C57.0451 28.8482 57.02 28.4976 57.02 28.147C56.97 26.8699 56.97 25.5176 56.97 24.1904Z" fill="#FCFCFC"/>
<path d="M30.2003 18.9817C26.3189 18.8815 22.6628 17.8298 19.1319 16.3773C13.0718 13.8982 7.8631 10.1419 2.92988 5.93493C2.15359 5.28385 1.40234 4.60772 0.626043 3.93159C0.575959 3.7563 0.626043 3.68118 0.801335 3.7563C5.78464 6.58602 10.9933 8.81473 16.6528 9.91657C17.429 10.0668 18.2053 10.2171 18.9816 10.3673C23.6394 12.6211 27.9466 15.5009 32.5042 17.955C32.7295 18.0802 32.9549 18.2054 33.0801 18.4308C33.2805 18.7813 33.2554 19.0818 32.7546 19.0568C31.9032 19.0318 31.0518 19.157 30.2003 18.9817Z" fill="#C9DA2F"/>
<path d="M33.4557 21.0351C35.4841 20.7346 37.5375 20.4842 39.5158 19.8832C41.6194 19.2571 43.6477 18.4558 45.626 17.4792C45.9265 17.3289 46.202 17.0785 46.6778 17.1286C45.1252 19.3072 43.3222 21.1353 41.2688 22.7129C37.9132 25.2671 34.207 26.7947 29.9249 26.7196C29.399 26.7196 28.8481 26.5944 28.3222 26.5443C27.5459 26.3189 27.5209 26.0685 28.1719 25.4424C29.7496 23.965 31.4774 22.6878 33.1302 21.3356C33.2554 21.2605 33.3806 21.1603 33.4557 21.0351Z" fill="#C9DA2F"/>
<path d="M55.4674 2.60438C59.975 0.851459 64.5326 -0.600962 69.5409 0.250457C66.1853 1.67784 63.1302 3.63109 60.1252 5.68451C59.5743 5.83476 59.2487 5.40905 58.8481 5.20872C57.8965 4.73293 57.02 4.10688 56.0935 3.58101C55.7429 3.38067 55.192 3.23042 55.4674 2.60438Z" fill="#73A441"/>
<path d="M23.9149 10.7679C25.3673 10.7178 26.8447 10.6678 28.2972 10.6177C28.3222 10.9683 27.9716 10.8931 27.7462 11.0684C30.9516 12.8213 33.9816 14.7746 37.187 16.4524C37.6878 16.7279 38.1887 17.0033 38.6644 17.3289C38.9649 17.5292 39.3406 17.7295 39.2154 18.2053C38.6144 18.4557 37.9883 18.606 37.3372 18.5809C36.8865 18.7813 36.5359 18.5559 36.1853 18.3556C32.4541 16.202 28.773 13.9733 24.9917 11.8948C24.5409 11.6694 23.8648 11.5192 23.9149 10.7679Z" fill="#C4D632"/>
<path d="M29.6244 10.4924C30.4507 10.3922 31.2771 10.2921 32.1285 10.1919C35.0334 11.8947 38.0634 13.3972 40.8931 15.2253C41.7446 15.7762 42.7462 16.1017 43.4224 16.878C42.7212 17.2537 41.9699 17.5291 41.1686 17.6543C40.8931 17.7545 40.6678 17.6042 40.4674 17.479C37.1619 15.4757 33.8063 13.5725 30.4257 11.6944C30.0751 11.4941 29.6995 11.2937 29.4741 10.9181C29.399 10.7428 29.3739 10.5675 29.6244 10.4924Z" fill="#BBD034"/>
<path d="M23.9149 10.768C24.4908 11.6696 25.5175 11.9951 26.394 12.4458C29.8498 14.324 33.2304 16.3774 36.6361 18.3807C36.8614 18.531 37.0868 18.5811 37.3623 18.5811C36.9366 18.8315 36.4858 18.7814 36.0351 18.7814C35.3589 18.9817 34.7329 18.8315 34.1069 18.5059C30.1002 16.3023 26.1937 13.9233 22.187 11.6696C21.8364 11.4692 21.4608 11.2689 21.3857 10.743C22.1619 10.6428 22.8631 10.6178 23.5893 10.768C23.6895 10.768 23.8147 10.768 23.9149 10.768Z" fill="#C6D731"/>
<path d="M29.6244 10.4924C29.424 10.9933 29.8748 11.0684 30.1503 11.2186C32.9549 12.8464 35.7846 14.4741 38.5893 16.1018C39.4658 16.6026 40.3172 17.1535 41.1686 17.6794C40.5426 17.9799 39.8915 18.1552 39.1903 18.2303C38.7396 17.429 37.8881 17.1535 37.1619 16.7529C33.9816 14.9248 30.8013 13.1218 27.621 11.3188C27.4958 11.2437 27.3957 11.1185 27.2204 10.9682C27.571 10.6677 28.0217 10.9682 28.2721 10.6677C28.7479 10.5676 29.1987 10.5425 29.6244 10.4924Z" fill="#BED332"/>
<path d="M43.4224 16.8782C41.5943 16.0768 40.0167 14.8248 38.2638 13.8982C36.5108 12.9717 34.783 11.945 33.0551 10.9683C32.7045 10.768 32.3038 10.6177 32.1285 10.192C32.8047 9.96666 33.5058 9.86649 34.232 9.81641C37.4875 11.7697 40.8931 13.4725 44.0985 15.5259C44.399 15.7263 44.8497 15.8014 44.7496 16.3273C44.3739 16.6027 43.8982 16.778 43.4224 16.8782Z" fill="#B7CD36"/>
<path d="M23.5893 10.7679C22.9382 10.7679 22.2621 10.7679 21.3856 10.7679C22.5125 11.7445 23.6644 12.2704 24.7412 12.8964C27.9967 14.7996 31.3022 16.6026 34.5576 18.5058C35.0584 18.7812 35.5092 18.7562 36.01 18.8063C34.0818 19.1568 32.1536 19.3071 30.2003 18.9815C30.9265 18.9815 31.6527 18.9815 32.404 18.9565C32.6043 18.9565 32.9048 19.0567 33.005 18.8063C33.1052 18.5058 32.8047 18.3555 32.6043 18.2553C31.5025 17.6293 30.4007 17.0283 29.2738 16.4022C25.9683 14.5492 22.7379 12.5208 19.3322 10.7929C19.1569 10.6927 19.0317 10.5675 18.9816 10.3672C20.5092 10.4924 22.0367 10.6176 23.5893 10.7679Z" fill="#C8D931"/>
<path d="M39.9666 8.3389C40.3923 8.13857 40.8431 7.98832 41.3189 7.93823C43.7729 9.36561 46.177 10.8932 48.7062 12.2204C49.2571 12.5209 49.8581 12.7462 50.2588 13.2721C49.9833 13.6477 49.5576 13.8481 49.1319 14.0234C48.6811 14.2738 48.3305 13.9983 47.98 13.798C45.4507 12.3205 42.8464 10.9933 40.3923 9.41569C40.0668 9.19032 39.2654 9.01503 39.9666 8.3389Z" fill="#A6C23A"/>
<path d="M52.4374 11.7445C52.0367 12.1452 51.611 12.4707 51.1102 12.6961C50.8347 12.8213 50.6093 12.646 50.409 12.5208C47.98 11.1435 45.576 9.74116 43.172 8.31378C42.8714 8.13849 42.4708 7.9632 42.621 7.46237C43.1219 7.26203 43.6227 7.01161 44.1987 6.98657C45.9015 7.63766 47.3289 8.76454 48.9065 9.59091C50.1085 10.242 51.3356 10.9181 52.4374 11.7445Z" fill="#9EBD3C"/>
<path d="M47.0785 15.1753C46.7529 15.4508 46.3522 15.6511 45.9265 15.7513C45.576 15.8264 45.3005 15.6762 45.0501 15.5259C42.2704 13.8231 39.4157 12.2204 36.5359 10.6678C36.1102 10.4424 35.4841 10.2171 35.7346 9.49086C36.2354 9.31557 36.7362 9.14028 37.2621 9.11523C39.616 10.8181 42.2204 12.0451 44.6995 13.5226C45.576 13.9733 46.5526 14.2738 47.0785 15.1753Z" fill="#B0C938"/>
<path d="M39.9666 8.33887C39.591 8.88979 40.1419 9.01499 40.4174 9.16524C42.571 10.4424 44.7496 11.6694 46.9282 12.8965C47.6544 13.2971 48.3055 13.823 49.1319 13.9983C48.7062 14.399 48.1803 14.6243 47.6294 14.7996C44.975 13.1469 42.1703 11.7445 39.4908 10.1168C38.99 9.81633 38.2888 9.64104 38.2387 8.86474C38.7897 8.56424 39.3656 8.43903 39.9666 8.33887Z" fill="#A9C439"/>
<path d="M35.7596 9.46582C35.8097 9.94161 36.1352 10.192 36.5109 10.3924C39.7162 12.0952 42.8464 13.8982 45.9516 15.7763C45.5509 15.9516 45.1503 16.152 44.7746 16.3273C43.773 15.4007 42.5209 14.8248 41.3439 14.1486C39.2905 12.9466 37.212 11.8197 35.1085 10.6678C34.7329 10.4675 34.4324 10.192 34.2321 9.8164C34.7078 9.59103 35.2337 9.5159 35.7596 9.46582Z" fill="#B3CB38"/>
<path d="M52.4374 11.7445C51.2354 11.4691 50.3339 10.6177 49.2571 10.0667C47.6294 9.21532 46.0768 8.23869 44.4741 7.31215C44.3489 7.23702 44.2488 7.08677 44.1486 6.9866C44.6244 6.6861 45.1252 6.48577 45.6761 6.41064C48.3055 7.86307 50.985 9.19028 53.389 10.9933C53.1636 11.3188 52.813 11.5692 52.4374 11.7445Z" fill="#98B93C"/>
<path d="M42.621 7.4624C42.7462 7.7629 42.9716 7.96324 43.2721 8.13853C45.6511 9.51582 48.03 10.8931 50.409 12.2704C50.6594 12.4207 50.8848 12.5709 51.1352 12.7212C50.9599 13.0718 50.5342 13.0467 50.2838 13.2721C48.005 12.1702 45.8013 10.9432 43.6728 9.56591C43.1469 9.21532 42.5709 8.96491 42.02 8.66441C41.7195 8.48911 41.3439 8.38895 41.3439 7.9382C41.7446 7.7629 42.1703 7.61265 42.621 7.4624Z" fill="#A2BF3B"/>
<path d="M53.414 10.9934C52.7379 10.9183 52.2371 10.4926 51.7362 10.142C50.0584 8.99008 48.2053 8.13866 46.4775 7.08691C46.177 6.91162 45.8514 6.76137 45.7012 6.41078C46.1018 6.13532 46.5776 5.98507 47.0534 5.85986C49.4073 6.93666 51.5609 8.339 53.7897 9.61612C54.0401 9.76637 54.2654 9.91663 54.3406 10.2422C54.0902 10.5427 53.8147 10.8181 53.414 10.9934Z" fill="#94B63D"/>
<path d="M33.4558 21.0352C33.2304 21.9617 32.3289 22.2372 31.7028 22.763C30.5509 23.8148 29.2988 24.7664 28.0968 25.768C27.6711 26.1186 27.8715 26.3941 28.2972 26.5694C27.4207 26.5443 26.5943 26.369 25.793 26.0435C26.2187 25.0919 27.1703 24.6662 27.8715 24.0151C28.8231 23.1387 29.8998 22.3874 30.8264 21.4859C31.1018 21.2104 31.4524 21.2355 31.7529 21.1103C32.3289 21.0602 32.9049 21.0602 33.4558 21.0352Z" fill="#C6D731"/>
<path d="M31.7529 21.0852C30.8013 21.8615 29.8497 22.6628 28.8981 23.4391C27.8714 24.2905 26.8447 25.167 25.793 26.0184C25.1669 25.9433 24.616 25.743 24.0651 25.4425C25.3923 24.0902 26.995 23.0385 28.4224 21.8114C28.8731 21.4358 28.823 21.2355 28.4975 20.9099C29.5993 20.96 30.6761 21.0101 31.7529 21.0852Z" fill="#C3D532"/>
<path d="M54.3656 10.2421C52.2621 8.98997 50.1836 7.71284 48.03 6.61101C47.6544 6.41067 47.2788 6.26042 47.0534 5.8848C47.5542 5.68446 48.0801 5.48413 48.581 5.30884C50.5593 6.43572 52.5125 7.58764 54.5158 8.66443C54.8664 8.83972 55.1669 9.0651 55.2421 9.46577C55.0668 9.84139 54.6911 10.0167 54.3656 10.2421Z" fill="#8FB33E"/>
<path d="M59.0484 6.38566C58.773 6.83641 58.3222 7.06178 57.8965 7.33724C57.7212 7.51254 57.5209 7.43741 57.3706 7.33724C55.9683 6.43574 54.4407 5.70953 53.0134 4.83307C52.6377 4.60769 52.1369 4.38232 52.3873 3.75628C52.9132 3.58098 53.3639 3.2304 53.9149 3.15527C55.6678 3.88148 57.1703 5.0334 58.798 5.95995C58.9733 6.08516 59.0234 6.23541 59.0484 6.38566Z" fill="#7DAA40"/>
<path d="M38.2638 8.8648C39.3155 9.99168 40.7679 10.5676 42.0701 11.3189C43.6728 12.2705 45.3506 13.1469 46.9533 14.0735C47.2287 14.2237 47.6043 14.374 47.6294 14.7997C47.4541 14.9249 47.2788 15.0501 47.0785 15.1753C44.399 13.3974 41.4441 12.0201 38.7145 10.3423C38.1886 10.0167 37.4374 9.86647 37.2871 9.09018C37.5876 8.91489 37.9132 8.83976 38.2638 8.8648Z" fill="#ADC639"/>
<path d="M26.0184 20.5342C26.6444 20.6594 27.2955 20.7596 27.9215 20.8848C28.172 21.2353 27.9215 21.5108 27.6962 21.6861C26.2938 22.7629 24.9917 23.9399 23.5643 25.0167C23.4391 25.1168 23.2888 25.1669 23.1135 25.0918C22.6878 24.9916 22.3122 24.8163 21.9616 24.5409C21.7863 24.04 22.1619 23.7896 22.4624 23.5392C23.6645 22.5125 24.8414 21.5108 26.0184 20.5342Z" fill="#BBD034"/>
<path d="M52.4123 3.78125C52.4875 4.28208 52.8631 4.50746 53.2638 4.73284C54.8163 5.6093 56.3689 6.48576 57.9215 7.36222C57.596 7.61264 57.2955 7.86305 56.9699 8.11347C56.7195 8.3138 56.4691 8.16355 56.2688 8.03834C54.7663 7.08676 53.1385 6.36055 51.636 5.40896C51.2604 5.18359 50.7095 4.98325 51.0601 4.33217C51.4858 4.05671 51.9365 3.88142 52.4123 3.78125Z" fill="#83AD40"/>
<path d="M55.2421 9.44061C53.4891 8.21357 51.5359 7.31207 49.7078 6.21023C49.2821 5.95981 48.7813 5.80956 48.581 5.28369C48.9315 5.08335 49.2821 4.85798 49.7329 4.88302C51.8865 6.18519 54.1653 7.26198 56.2437 8.68936C56.0184 9.09003 55.5676 9.1902 55.2421 9.44061Z" fill="#8CB13F"/>
<path d="M56.2187 8.68943C54.6911 8.06339 53.2888 7.21197 51.8865 6.36055C51.1352 5.9098 50.2337 5.65938 49.7329 4.88309C50.1335 4.58259 50.5843 4.4073 51.0601 4.30713C50.985 4.68275 51.2354 4.88309 51.5108 5.05838C53.3138 6.08509 55.1419 7.08676 56.9449 8.11347C56.7696 8.36389 56.5192 8.56422 56.2187 8.68943Z" fill="#88AF3F"/>
<path d="M23.1385 25.0669C24.5659 23.915 26.0183 22.7881 27.4457 21.6362C27.6961 21.4358 27.9466 21.2355 27.9215 20.8599C28.1219 20.8849 28.3222 20.8849 28.4975 20.9099C28.6978 21.1854 29.0484 20.96 29.424 21.2355C28.3472 22.137 27.3456 23.0635 26.2437 23.8899C25.5175 24.4408 24.9416 25.167 24.0401 25.4675C23.7145 25.4175 23.414 25.2922 23.1385 25.0669Z" fill="#BFD333"/>
<path d="M22.3873 19.5576C22.7629 19.6828 23.1636 19.808 23.5392 19.9082C23.99 20.1586 23.8898 20.5092 23.6144 20.7596C22.5876 21.6862 21.5109 22.5626 20.3589 23.364C20.2337 23.4641 20.0584 23.4641 19.9332 23.3389C19.5326 23.1887 19.182 22.9383 18.8815 22.6378C19.0568 22.1119 19.5075 21.7613 19.9332 21.4608C20.7596 20.8598 21.4858 20.0835 22.3873 19.5576Z" fill="#B0C939"/>
<path d="M59.0484 6.38569C57.5209 5.45915 56.0184 4.55764 54.4908 3.6311C54.2654 3.50589 54.015 3.43076 53.9149 3.15531C54.3906 2.87985 54.8915 2.67951 55.4424 2.57935C55.4424 3.0301 55.818 3.13026 56.0935 3.30556C57.4207 4.10689 58.7479 4.85814 60.0751 5.63444C59.8497 6.03511 59.424 6.16031 59.0484 6.38569Z" fill="#78A741"/>
<path d="M26.0184 20.5341C25.5426 21.6109 24.4407 22.0116 23.6895 22.8129C23.1386 23.3889 22.3122 23.7144 21.9867 24.5408C21.611 24.3405 21.2354 24.1652 20.8347 23.9648C20.7095 23.6643 20.9099 23.464 21.0851 23.3137C22.2371 22.262 23.389 21.1852 24.6912 20.2837C25.1419 20.3338 25.5927 20.4339 26.0184 20.5341Z" fill="#B7CD36"/>
<path d="M22.3873 19.5575C21.4357 20.8096 19.9833 21.5358 18.8815 22.6126C18.4558 22.4123 18.1052 22.1619 17.7796 21.8113C17.98 21.2103 18.4808 20.8848 18.9566 20.5342C19.5826 20.0834 20.0334 19.4323 20.6594 18.9565C21.2354 19.1569 21.8114 19.3572 22.3873 19.5575Z" fill="#AAC539"/>
<path d="M20.6594 18.9566C20.5843 19.5576 20.0584 19.833 19.7078 20.1836C19.1068 20.7596 18.4307 21.2855 17.7796 21.8113C17.429 21.611 17.0785 21.3856 16.828 21.035C17.429 19.9332 18.5309 19.3072 19.3072 18.3806C19.808 18.5309 20.2588 18.7062 20.6594 18.9566Z" fill="#A6C23B"/>
<path d="M24.7162 20.2588C24.0902 21.2354 23.0634 21.7863 22.2371 22.5626C21.7613 23.0133 21.2354 23.414 20.8598 23.9649C20.5593 23.7646 20.2588 23.5643 19.9332 23.3639C21.2604 22.6127 22.3122 21.5359 23.5142 20.6344C23.7897 20.434 23.6644 20.1836 23.5392 19.9583C23.9399 19.9583 24.3406 20.0584 24.7162 20.2588Z" fill="#B4CC38"/>
<path d="M15.9265 20.2839C15.601 20.1086 15.3255 19.8581 15.1002 19.5326C15.4257 18.7313 16.2521 18.4558 16.803 17.8798C16.9532 17.7296 17.1285 17.6044 17.2287 17.4041C17.7546 17.4541 18.0801 17.9049 18.5559 18.0301C18.631 18.3306 18.4558 18.5059 18.2805 18.6812C17.7295 19.2321 17.0785 19.6828 16.5025 20.2087C16.3522 20.384 16.1519 20.4842 15.9265 20.2839Z" fill="#9EBD3D"/>
<path d="M15.9265 20.2839C16.9032 19.6578 17.8047 18.9567 18.5559 18.0552C18.8063 18.1804 19.0818 18.3056 19.3322 18.4058C19.3322 18.6311 19.3573 18.8816 19.1569 19.0068C18.2554 19.5577 17.7045 20.4842 16.8531 21.0602C16.4775 20.8599 16.177 20.6094 15.9265 20.2839Z" fill="#A2BF3C"/>
<path d="M13.798 18.2054C13.3973 17.8799 13.0718 17.5043 12.8214 17.0786C13.222 16.5777 13.773 16.2272 14.1736 15.7263C14.7246 15.8265 15.0251 16.3273 15.5008 16.5277C15.4758 17.2038 14.7496 17.93 13.798 18.2054Z" fill="#91B43F"/>
<path d="M17.2287 17.4291C17.3539 17.6795 17.2287 17.7797 17.0534 17.955C16.4023 18.4808 15.7763 19.0067 15.1252 19.5576C14.7997 19.3573 14.5492 19.1069 14.3489 18.8064C14.975 18.1303 15.7512 17.6044 16.4775 17.0535C16.7529 17.1036 17.0284 17.2288 17.2287 17.4291Z" fill="#99BA3D"/>
<path d="M14.1736 15.7263C14.0484 16.5026 13.4474 16.8031 12.8214 17.0786C12.4207 16.7781 12.1202 16.3774 11.8447 15.9517C12.0451 15.4008 12.5709 15.2505 12.9966 15.0251C13.4474 15.1754 13.823 15.4258 14.1736 15.7263Z" fill="#8BB041"/>
<path d="M16.4775 17.0284C15.9516 17.8298 15.2003 18.3807 14.3489 18.7813C14.1235 18.6311 13.9232 18.4558 13.823 18.2054C14.3489 17.6044 15.2003 17.354 15.5259 16.5276C15.8765 16.6027 16.202 16.803 16.4775 17.0284Z" fill="#96B73F"/>
<path d="M13.0217 15.0001C12.7713 15.4759 12.2704 15.6512 11.8698 15.9266C11.419 15.551 11.0684 15.0752 10.7679 14.5744C10.9432 14.2989 11.1937 14.0736 11.5192 13.9734C12.0952 14.1737 12.4708 14.7246 13.0217 15.0001Z" fill="#85AE44"/>
<path d="M11.5192 13.9734C11.369 14.2989 11.1686 14.5493 10.7679 14.5744C10.192 13.8732 9.61603 13.147 9.04007 12.4458C9.09015 12.3707 9.14024 12.2956 9.21536 12.2205C9.96661 12.8215 10.7429 13.3974 11.5192 13.9734Z" fill="#80AB48"/>
<path d="M0.776294 3.73128C0.72621 3.78136 0.651085 3.85649 0.601002 3.90657C0.42571 3.78136 0.250417 3.65616 0 3.43078C0.42571 3.35565 0.601002 3.55599 0.776294 3.73128Z" fill="#DBE676"/>
</g>
<defs>
<clipPath id="clip0_16_3561">
<rect width="141.06" height="30" fill="white"/>
</clipPath>
</defs>
</svg>
